<?xml version="1.0" encoding="utf-8"?>
<!-- Generator: Adobe Illustrator 28.1.0, SVG Export Plug-In . SVG Version: 6.00 Build 0)  -->
<svg version="1.1" id="Capa_1" xmlns="http://www.w3.org/2000/svg" xmlns:xlink="http://www.w3.org/1999/xlink" x="0px" y="0px"
	 viewBox="0 0 800 800" style="enable-background:new 0 0 800 800;" xml:space="preserve">
<style type="text/css">
	.st0{fill:#FFFFFF;stroke:#FFFFFF;stroke-width:15;stroke-miterlimit:10;}
</style>
<g>
	<path class="st0" d="M719.6,693.4l-46-518.8c-0.8-10.3-9.4-18.1-19.9-18.1h-97C556.5,70.2,486.3,0,400,0S243.5,70.2,243.3,156.5
		h-97c-10.3,0-18.9,7.8-19.9,18.1l-46,518.8c0,0.7,0,1.2,0,1.8C80.4,753,133.6,800,198.8,800h402.4c65.2,0,118.4-47,118.4-104.8
		C719.6,694.5,719.6,694,719.6,693.4z M400,39.7c64.4,0,116.7,52.3,116.9,116.7H283.1C283.3,92.1,335.6,39.7,400,39.7z M601.2,760.1
		H198.8c-43.1,0-78.2-28.6-78.7-64.3l44.4-499.6h78.8v69.7c0,10.9,8.9,19.9,19.9,19.9c10.9,0,19.9-8.9,19.9-19.9v-69.7h233.8v69.7
		c0,10.9,8.9,19.9,19.9,19.9c10.9,0,19.9-8.9,19.9-19.9v-69.7h78.8L679.9,696C679.4,731.4,644.3,760.1,601.2,760.1z"/>
</g>
</svg>
