<?xml version="1.0" encoding="UTF-8"?>
<svg id="Layer_2" data-name="Layer 2" xmlns="http://www.w3.org/2000/svg" version="1.1" viewBox="0 0 140.9 140.9">
  <defs>
    <style>
      .cls-1 {
        fill: #fff;
        stroke-width: 0px;
      }
    </style>
  </defs>
  <g id="Layer_1-2" data-name="Layer 1-2">
    <g>
      <path class="cls-1" d="M0,65.2c1.6-6.7,2.5-13.7,5-20C14.9,21,32.9,6,58.8,1.7c25.7-4.2,47.5,4,64.6,23.5,13.9,15.9,19.2,34.8,16.1,55.8-3.4,22.3-15.2,39.1-34.6,50.6-8.2,4.9-17.1,7.6-26.6,8.8-.9.1-1.8.3-2.7.5h-11c-2-.3-3.9-.7-5.9-1-25.8-4.8-43.9-19.4-53.7-43.6-2.6-6.3-3.4-13.3-5-20v-11h0ZM6.4,70.8c0,35.3,28.7,63.8,63.8,63.7,35.2-.2,63.5-28.4,63.6-63.6.1-35.2-28.4-63.8-63.7-63.8-35.2,0-63.8,28.6-63.7,63.8Z"/>
      <path class="cls-1" d="M54.5,66.7c-.2-3.2,1.3-4.6,4-5.2,3.3-.7,6.5-2,9.8-2.2,8.8-.6,13.2,4.7,11.4,13.2-1.3,6-3.2,12-4.7,18-1.9,8,.6,10.3,8.6,8.4.3,0,.7-.1,1.3-.2.1,2.3-.2,3.9-2.8,4.5-4,.9-7.9,2.4-11.9,2.6-8.2.4-12.6-5.1-10.8-13.1,1.3-6,3.2-12,4.8-17.9.1-.4.3-.9.3-1.3,1.2-6.7-1.2-8.8-7.8-7.2-.7.2-1.4.4-2.2.6h0Z"/>
      <path class="cls-1" d="M86.1,43.8c0,4.5-4.1,8.2-8.9,8.2-4.8,0-9-3.7-9.1-8.1,0-4.5,4.1-8.3,9.1-8.3,4.9,0,8.9,3.7,8.9,8.2Z"/>
    </g>
  </g>
</svg>