<svg width="19" height="17" viewBox="0 0 19 17" fill="none" xmlns="http://www.w3.org/2000/svg">
<path d="M0 1.5C0 0.671573 0.671573 0 1.5 0H17.5C18.3284 0 19 0.671573 19 1.5C19 2.32843 18.3284 3 17.5 3H1.5C0.671573 3 0 2.32843 0 1.5Z" fill="white"/>
<path d="M0 8.5C0 7.67157 0.671573 7 1.5 7H17.5C18.3284 7 19 7.67157 19 8.5C19 9.32843 18.3284 10 17.5 10H1.5C0.671573 10 0 9.32843 0 8.5Z" fill="white"/>
<path d="M0 15.5C0 14.6716 0.671573 14 1.5 14H17.5C18.3284 14 19 14.6716 19 15.5C19 16.3284 18.3284 17 17.5 17H1.5C0.671573 17 0 16.3284 0 15.5Z" fill="white"/>
</svg>
