<?xml version="1.0" encoding="UTF-8"?>
<svg id="Layer_2" data-name="Layer 2" xmlns="http://www.w3.org/2000/svg" version="1.1" viewBox="0 0 144 144">
  <defs>
    <style>
      .cls-1 {
        fill: #fff;
        stroke-width: 0px;
      }
    </style>
  </defs>
  <g id="Layer_1-2" data-name="Layer 1-2">
    <g>
      <path class="cls-1" d="M58.6,63.3c5.6,7.6,20.9,7.8,26.8,0,2.2,2.8,4.9,4.8,8.4,5.3,3.4.5,6.9.6,10.3-.3,2.8-.8,5.1-2.5,7-4.9,3.1,3.8,6.9,5.6,11.8,5.5,0,.6,0,1,0,1.5v54.7c0,2.9-1,3.9-3.9,3.9h-53.1v-43.8c0-3.3-.9-4.2-4.3-4.2h-21.9c-2.8,0-3.8,1-3.8,3.8v44.1c-.4,0-.7.1-1,.1-3.5,0-6.9,0-10.4,0-2.5,0-3.6-1.1-3.6-3.5v-55.4c0-.3,0-.6,0-.7,2.3-.6,4.6-.8,6.6-1.8,1.9-.9,3.6-2.4,5.2-4,0,0,.2,0,.3,0,3.1,3.8,7.1,5.5,12,5.2,2-.1,4.2,0,6.1-.5,3.1-.7,5.5-2.5,7.4-5.1ZM108,96.1v-11.5c0-2.4-1.1-3.6-3.5-3.6-6.7,0-13.3,0-20,0-2.4,0-3.5,1.1-3.5,3.5v22.9c0,2.4,1.1,3.6,3.5,3.6,6.7,0,13.3,0,20,0,2.4,0,3.5-1.2,3.5-3.6,0-3.8,0-7.6,0-11.4Z"/>
      <path class="cls-1" d="M72,14.9c1.7,0,3.5,0,5.2,0,.8,0,1.2.2,1.3,1.1,1.2,11.2,2.5,22.4,3.7,33.6.2,1.9.5,3.8.3,5.7-.5,4.3-4.2,7.5-8.4,7.6-1.8,0-3.7,0-5.4-.2-4.5-.8-7.5-5.2-7-9.7,1.4-12.3,2.7-24.6,4.1-36.9,0-.9.3-1.2,1.3-1.2,1.7,0,3.5,0,5.2,0h0Z"/>
      <path class="cls-1" d="M84.3,14.9c4,0,7.9,0,11.8,0,.3,0,.8.7.9,1.1,1.9,6.8,3.8,13.5,5.7,20.3,1.5,5.5,3.1,11,4.6,16.5,1.5,5.6-1.8,10.1-7.7,10.1h-2.9c-4.1,0-7.2-2.7-7.7-6.7-1.1-9.5-2.1-19-3.2-28.5-.4-3.8-.8-7.5-1.3-11.3,0-.4,0-.9-.2-1.5h0Z"/>
      <path class="cls-1" d="M59.6,15c-.3,3-.6,5.9-1,8.9-1.1,9.8-2.2,19.5-3.3,29.3-.1,1.3-.2,2.5-.5,3.8-.7,3.1-2.6,5.3-5.8,5.8-2.3.3-4.8.4-7.1,0-4-.7-6.5-4.8-5.5-8.7,2.2-8.4,4.6-16.8,6.9-25.2,1.2-4.2,2.4-8.5,3.5-12.7.2-.9.6-1.2,1.5-1.2,3.3,0,6.7,0,10,0,.4,0,.7,0,1.2,0h0Z"/>
      <path class="cls-1" d="M41,14.9c-1.6,5.7-3.1,11.1-4.6,16.5-2.3,8.4-4.7,16.8-7,25.2-1.2,4.5-3.8,6.4-8.4,6.4s-1.9,0-2.8,0c-5.3-.8-8-5.8-5.8-10.8,3.1-7,6.2-14,9.3-21,1.8-3.9,3.5-7.9,5.2-11.8,1.3-3,3.4-4.4,6.7-4.4,2.4,0,4.8,0,7.4,0h0Z"/>
      <path class="cls-1" d="M103.1,15.1c3.2,0,6.4-.2,9.5,0,2.2.2,3.5,2,4.3,4,3.4,7.6,6.8,15.2,10.1,22.8,1.5,3.3,2.9,6.6,4.4,9.9,2.5,5.7-1,11-7.2,11.1-.8,0-1.6,0-2.4,0-3.3,0-6.2-2.1-7.1-5.3-3.9-14-7.8-28-11.7-42,0-.2,0-.4,0-.5h0Z"/>
    </g>
  </g>
</svg>