<?xml version="1.0" encoding="UTF-8"?>
<svg id="Layer_2" data-name="Layer 2" xmlns="http://www.w3.org/2000/svg" version="1.1" viewBox="0 0 144 144">
  <defs>
    <style>
      .cls-1 {
        fill: #fff;
        stroke-width: 0px;
      }
    </style>
  </defs>
  <g id="Layer_1-2" data-name="Layer 1-2">
    <g>
      <path class="cls-1" d="M56.1,61.7c6.6,9,24.8,9.2,31.7,0,2.6,3.3,5.8,5.7,10,6.3,4,.6,8.2.7,12.2-.4,3.3-.9,6-3,8.3-5.8,3.7,4.5,8.2,6.6,14,6.5v66.6c0,3.4-1.2,4.6-4.6,4.6h-62.9v-51.9c0-3.9-1.1-5-5.1-5h-25.9c-3.3,0-4.5,1.2-4.5,4.5v52.2c-.5,0-.8.1-1.2.1h-12.3c-3,0-4.3-1.3-4.3-4.1v-66.5c2.7-.7,5.4-.9,7.8-2.1,2.3-1.1,4.3-2.8,6.2-4.7h.4c3.7,4.5,8.4,6.5,14.2,6.2,2.4-.1,5,0,7.2-.6,3.7-.8,6.5-3,8.8-6h.1ZM114.7,100.6v-13.6c0-2.8-1.3-4.3-4.1-4.3h-23.7c-2.8,0-4.1,1.3-4.1,4.1v27.1c0,2.8,1.3,4.3,4.1,4.3h23.7c2.8,0,4.1-1.4,4.1-4.3v-13.5h0Z"/>
      <path class="cls-1" d="M72,4.4h6.2c.9,0,1.4.2,1.5,1.3,1.4,13.3,3,26.5,4.4,39.8.2,2.3.6,4.5.4,6.8-.6,5.1-5,8.9-10,9-2.1,0-4.4,0-6.4-.2-5.3-.9-8.9-6.2-8.3-11.5,1.7-14.6,3.2-29.1,4.9-43.7,0-1.1.4-1.4,1.5-1.4h6.2-.4Z"/>
      <path class="cls-1" d="M86.6,4.4h14c.4,0,.9.8,1.1,1.3,2.3,8.1,4.5,16,6.8,24,1.8,6.5,3.7,13,5.4,19.5,1.8,6.6-2.1,12-9.1,12h-3.4c-4.9,0-8.5-3.2-9.1-7.9-1.3-11.3-2.5-22.5-3.8-33.8-.5-4.5-.9-8.9-1.5-13.4,0-.5,0-1.1-.2-1.8h0Z"/>
      <path class="cls-1" d="M57.3,4.5c-.4,3.6-.7,7-1.2,10.5-1.3,11.6-2.6,23.1-3.9,34.7-.1,1.5-.2,3-.6,4.5-.8,3.7-3.1,6.3-6.9,6.9-2.7.4-5.7.5-8.4,0-4.7-.8-7.7-5.7-6.5-10.3,2.6-10,5.4-19.9,8.2-29.9,1.4-5,2.8-10.1,4.1-15,.2-1.1.7-1.4,1.8-1.4h13.4Z"/>
      <path class="cls-1" d="M35.3,4.4c-1.9,6.8-3.7,13.1-5.4,19.5-2.7,10-5.6,19.9-8.3,29.9-1.4,5.3-4.5,7.6-10,7.6s-2.3,0-3.3,0c-6.3-.9-9.5-6.9-6.9-12.8,3.7-8.3,7.3-16.6,11-24.9,2.1-4.6,4.1-9.4,6.2-14,1.5-3.6,4-5.2,7.9-5.2h8.8,0Z"/>
      <path class="cls-1" d="M108.9,4.6c3.8,0,7.6-.2,11.3,0,2.6.2,4.1,2.4,5.1,4.7,4,9,8.1,18,12,27,1.8,3.9,3.4,7.8,5.2,11.7,3,6.8-1.2,13-8.5,13.1h-2.8c-3.9,0-7.3-2.5-8.4-6.3-4.6-16.6-9.2-33.2-13.9-49.8v-.6h.1Z"/>
    </g>
  </g>
</svg>